# xmcd CD database file
#
# Track frame offsets:
#	150
#	20060
#	36549
#	45392
#	57686
#	76294
#	91063
#	105376
#
# Disc length: 1612 seconds
#
# Revision: 0
# Processed by: cddbd v1.5.2PL0 Copyright (c) Steve Scherf et al.
# Submitted via: CDex 1.51
#
DISCID=60064a08
DTITLE=Matthew Larkin Cassel - Matt The Cat
DYEAR=1977
DGENRE=Jazz
TTITLE0=More
TTITLE1=Fly Away
TTITLE2=Young Girl
TTITLE3=Hold Me
TTITLE4=All I'm Missing Is You
TTITLE5=Close To You Tonight
TTITLE6=Love To Love
TTITLE7=When I Go Down
EXTD=YEAR: 1977
EXTT0=
EXTT1=
EXTT2=
EXTT3=
EXTT4=
EXTT5=
EXTT6=
EXTT7=
PLAYORDER=
